<svg height="203" viewBox="0 0 347 203" width="347" xmlns="http://www.w3.org/2000/svg"><g fill="none" fill-rule="evenodd" transform=""><path d="m39.013889.5h51l37.75 202.5h-41.25l-6.75-42.75h-29.75l-7 42.75h-42.25000004zm36.5 133-10.75-79-10.75 79zm71.416667-133h44.75v172.25h46.5v30.25h-91.25zm123.416666 33.25h-31v-33.25h106.75v33.25h-30.75v169.25h-45z" fill="#000"/><path d="m184.5775 78.9h10.74v41.34h11.16v7.26h-21.9zm34.92 0h12.24l9.06 48.6h-9.9l-1.62-10.26h-7.14l-1.68 10.26h-10.14zm8.76 31.92-2.58-18.96-2.58 18.96zm18.96-31.92h12.66c4.840024 0 8.629986.8599914 11.37 2.58s4.11 4.979976 4.11 9.78c0 5.8800294-2.379976 9.259996-7.14 10.14 2.880014.360002 5.039993 1.55999 6.48 3.6s2.16 4.839982 2.16 8.4c0 9.400047-4.899951 14.1-14.7 14.1h-14.94zm12.84 19.44c2.280011 0 3.829996-.5199948 4.65-1.56s1.23-2.659989 1.23-4.86c0-1.9200096-.519995-3.3699951-1.56-4.35s-2.55999-1.47-4.56-1.47h-1.86v12.24zm.18 21.66c2.280011 0 3.889995-.569994 4.83-1.71s1.41-2.929988 1.41-5.37c0-2.760014-.469995-4.699994-1.41-5.82s-2.569988-1.68-4.89-1.68h-2.22v14.58z" fill="#ffb300" transform="matrix(0 -1 1 0 127.5175 333.9175)"/></g></svg>