<svg height="196" viewBox="0 0 355 196" width="355" xmlns="http://www.w3.org/2000/svg"><g fill="none" fill-rule="evenodd" transform="translate(0 -5)"><g fill="#000" transform="translate(0 56)"><path d="m24.3825456 0h24.106814l17.5106404 95h-19.5l-2.8556374-19.703006h-17.2135257l-4.9308369 19.703006h-21.5zm226.0000004 0h24.106814l17.51064 95h-19.498158l-2.857479-19.703006h-17.213526l-4.930837 19.703006h-21.54645zm-208.1320856 62.3743487-5.0813382-37.2360721-8.2325558 37.2360721zm226.0634336-1.1382766-5.081338-37.2360721-8.232556 37.2360721zm-198.325353-61.2360721h21.1525476v81.1887776h21.9797424v13.8112224h-43.13229zm47.20575 15.6721443h-14.653162v-15.6721443h50.458871v15.6721443h-14.534991v79.3278557h-21.270718z"/><path d="m204.634736 0h21.153089l-20.483438 80.808642h18.829006l-3.151298 14.191358h-39.982095zm91.987466 0h24.934647c9.532724 0 16.997287 1.68105315 22.393912 5.04320988 5.396625 3.36215672 8.094897 9.73452102 8.094897 19.11728392 0 11.4938847-4.687509 18.1008145-14.062668 19.8209877 5.672365.7037072 9.926575 3.0493628 12.762758 7.037037 2.836182 3.9876743 4.254252 9.4608706 4.254252 16.4197531 0 18.3745775-9.650754 27.5617284-28.952551 27.5617284h-29.425247zm23.713519 38c4.490622 0 7.543411-1.0164507 9.15846-3.0493827 1.615048-2.032932 2.42256-5.199567 2.42256-9.5 0-3.7531052-1.024161-6.587439-3.072515-8.5030864-2.048354-1.9156475-5.042058-2.8734568-8.9812-2.8734568h-3.663384v23.9259259zm.354521 42.3395062c4.490622 0 7.661584-1.1141864 9.512981-3.3425926s2.777081-5.7273424 2.777081-10.4969136c0-5.3950887-.925684-9.1872319-2.777081-11.3765432-1.851397-2.1893114-5.06175-3.2839506-9.631155-3.2839506h-4.372426v28.5z"/></g><path d="m158.384296 5.81837183 23-6.03151248 2.638959 201.22610465-23 6.031512z" fill="#ffb300" fill-rule="nonzero" transform="matrix(.96592583 .25881905 -.25881905 .96592583 32.599572 -40.786994)"/></g></svg>