<?xml version="1.0" encoding="UTF-8"?>
<svg width="148px" height="64px" viewBox="0 0 148 64" version="1.1" xmlns="http://www.w3.org/2000/svg" xmlns:xlink="http://www.w3.org/1999/xlink">
    <!-- Generator: Sketch 51.2 (57519) - http://www.bohemiancoding.com/sketch -->
    <title>altlogo_black copy</title>
    <desc>Created with Sketch.</desc>
    <defs>
        <path d="M11.8512732,0.1083411 L27.4415382,0.1083411 L38.9813911,61.5377446 L26.371618,61.5377446 L24.3082006,48.569315 L15.2138794,48.569315 L13.0740391,61.5377446 L0.158574527,61.5377446 L11.8512732,0.1083411 Z M23.0090118,40.4545666 L19.7228286,16.4895154 L16.4366453,40.4545666 L23.0090118,40.4545666 Z M45.2480662,0.1083411 L58.9277595,0.1083411 L58.9277595,52.3612535 L73.1424128,52.3612535 L73.1424128,61.5377446 L45.2480662,61.5377446 L45.2480662,0.1083411 Z" id="path-1"></path>
        <polygon id="path-2" points="82.5678997 10.1948975 73.0914641 10.1948975 73.0914641 0.1083411 105.724028 0.1083411 105.724028 10.1948975 96.3240158 10.1948975 96.3240158 61.5377446 82.5678997 61.5377446"></polygon>
        <path d="M0.389603261,0.554975699 L7.63521196,0.554975699 L7.63521196,30.3263499 L15.1641685,30.3263499 L15.1641685,35.5547045 L0.389603261,35.5547045 L0.389603261,0.554975699 Z M22.9359946,0.554975699 L31.1935598,0.554975699 L37.3057772,35.5547045 L30.6268641,35.5547045 L29.5339511,28.1658728 L24.717038,28.1658728 L23.5836467,35.5547045 L16.7428207,35.5547045 L22.9359946,0.554975699 Z M28.8458207,23.5424519 L27.1052554,9.8882367 L25.3646902,23.5424519 L28.8458207,23.5424519 Z" id="path-3"></path>
        <path d="M42.6489076,0.554975699 L51.1898207,0.554975699 C54.4550834,0.554975699 57.0119346,1.17430627 58.8604511,2.41298599 C60.7089676,3.65166571 61.633212,5.99936067 61.633212,9.45614129 C61.633212,13.6906975 60.0275903,16.1248107 56.8162989,16.7585538 C58.7592651,17.0178124 60.216468,17.8819946 61.1879511,19.3511263 C62.1594342,20.8202581 62.6451685,22.8366832 62.6451685,25.4004622 C62.6451685,32.1699909 59.3394769,35.5547045 52.7279946,35.5547045 L42.6489076,35.5547045 L42.6489076,0.554975699 Z M51.3112554,14.5548672 C52.849437,14.5548672 53.895115,14.1803883 54.4483207,13.4314191 C55.0015263,12.68245 55.278125,11.515804 55.278125,9.93144625 C55.278125,8.548734 54.9273169,7.50451385 54.2256902,6.79875447 C53.5240635,6.0929951 52.4986245,5.7401207 51.1493424,5.7401207 L49.8945163,5.7401207 L49.8945163,14.5548672 L51.3112554,14.5548672 Z M51.4326902,30.1535118 C52.9708718,30.1535118 54.0570276,29.7430252 54.6911902,28.9220398 C55.3253528,28.1010544 55.6424293,26.8119827 55.6424293,25.0547858 C55.6424293,23.067137 55.3253528,21.6700424 54.6911902,20.8634603 C54.0570276,20.0568782 52.9573792,19.6535931 51.392212,19.6535931 L49.8945163,19.6535931 L49.8945163,30.1535118 L51.4326902,30.1535118 Z" id="path-4"></path>
    </defs>
    <g id="Page-1" stroke="none" stroke-width="1" fill="none" fill-rule="evenodd">
        <g id="altlogo_black-copy" fill="#000000">
            <g id="ALT" transform="translate(0.000000, 2.000000)">
                <g id="AL">
                    <use xlink:href="#path-1"></use>
                    <use xlink:href="#path-1"></use>
                </g>
                <g id="T">
                    <use xlink:href="#path-2"></use>
                    <use xlink:href="#path-2"></use>
                </g>
            </g>
            <g id="LAB-Copy-Copy" transform="translate(129.500000, 32.000000) rotate(-90.000000) translate(-129.500000, -32.000000) translate(98.000000, 14.000000)">
                <g id="LA">
                    <use xlink:href="#path-3"></use>
                    <use xlink:href="#path-3"></use>
                </g>
                <g id="B">
                    <use xlink:href="#path-4"></use>
                    <use xlink:href="#path-4"></use>
                </g>
            </g>
        </g>
    </g>
</svg>