<?xml version="1.0" encoding="UTF-8"?>
<svg width="113px" height="110px" viewBox="0 0 113 110" version="1.1" xmlns="http://www.w3.org/2000/svg" xmlns:xlink="http://www.w3.org/1999/xlink">
    <!-- Generator: Sketch 51.2 (57519) - http://www.bohemiancoding.com/sketch -->
    <title>altlogo_black copy 2</title>
    <desc>Created with Sketch.</desc>
    <defs>
        <path d="M12.6339045,1.61328179 L29.2537152,1.61328179 L41.5556339,66.5116408 L28.11314,66.5116408 L25.9134591,52.8108761 L16.2185695,52.8108761 L13.937419,66.5116408 L0.16904643,66.5116408 L12.6339045,1.61328179 Z M24.5284749,44.237883 L21.0252795,18.9195109 L17.5220841,44.237883 L24.5284749,44.237883 Z M40.2231504,2.70075555 L54.5620248,0.0432022694 L64.6220938,54.3224777 L79.5217063,51.5609977 L81.2884238,61.0933523 L52.049937,66.5123855 L40.2231504,2.70075555 Z" id="path-1"></path>
        <polygon id="path-2" points="88.0204968 12.2694321 77.9182589 12.2694321 77.9182589 1.61328179 112.705804 1.61328179 112.705804 12.2694321 102.685036 12.2694321 102.685036 66.5116408 88.0204968 66.5116408"></polygon>
        <path d="M0.132223266,110.547042 L0.132223266,102.638485 L32.6975091,102.638485 L32.6975091,94.4206544 L38.4165215,94.4206544 L38.4165215,110.547042 L0.132223266,110.547042 Z M0.132223266,85.9377329 L0.132223266,76.9246288 L38.4165215,70.2531646 L38.4165215,77.5431752 L30.3342808,78.736086 L30.3342808,83.9937301 L38.4165215,85.2308228 L38.4165215,92.697561 L0.132223266,85.9377329 Z M25.2769722,79.487178 L25.2769722,83.28682 L10.3413695,81.386999 L25.2769722,79.487178 Z" id="path-3"></path>
        <path d="M-2.13162821e-14,0 L16.4939044,0 C22.7996624,0 27.7373617,1.21970261 31.3071503,3.65914443 C34.876939,6.09858624 36.6618065,10.7221101 36.6618065,17.5298547 C36.6618065,25.8693418 33.5610877,30.6630567 27.3595571,31.9111433 C31.1117437,32.4217241 33.9258414,34.1236347 35.8019347,37.0169262 C37.678028,39.9102176 38.6160606,43.8813424 38.6160606,48.9304197 C38.6160606,62.2622528 32.2322278,68.9280694 19.4643706,68.9280694 L-2.13162821e-14,68.9280694 L-2.13162821e-14,0 Z M16.7284149,27.5712278 C19.698896,27.5712278 21.7182717,26.8337332 22.7866026,25.3587218 C23.8549335,23.8837105 24.3890909,21.5861312 24.3890909,18.4659149 C24.3890909,15.7428171 23.7116229,13.6863417 22.3566667,12.2964272 C21.0017104,10.9065127 19.0214194,10.2115658 16.4157343,10.2115658 L13.9924592,10.2115658 L13.9924592,27.5712278 L16.7284149,27.5712278 Z M16.9629254,58.2910217 C19.9334065,58.2910217 22.0309515,57.4826141 23.2556235,55.8657748 C24.4802956,54.2489354 25.0926224,51.7102521 25.0926224,48.2496486 C25.0926224,44.3351955 24.4802956,41.5837733 23.2556235,39.9952995 C22.0309515,38.4068258 19.90735,37.6126008 16.8847552,37.6126008 L13.9924592,37.6126008 L13.9924592,58.2910217 L16.9629254,58.2910217 Z" id="path-4"></path>
    </defs>
    <g id="Page-1" stroke="none" stroke-width="1" fill="none" fill-rule="evenodd">
        <g id="altlogo_black-copy-2" fill="#000000">
            <g id="ALT">
                <g id="AL">
                    <use xlink:href="#path-1"></use>
                    <use xlink:href="#path-1"></use>
                </g>
                <g id="T">
                    <use xlink:href="#path-2"></use>
                    <use xlink:href="#path-2"></use>
                </g>
            </g>
            <g id="LAB-Copy-Copy" transform="translate(55.500000, 90.500000) rotate(-270.000000) translate(-55.500000, -90.500000) translate(36.000000, 35.000000)">
                <g id="LA">
                    <use xlink:href="#path-3"></use>
                    <use xlink:href="#path-3"></use>
                </g>
                <g id="B">
                    <use xlink:href="#path-4"></use>
                    <use xlink:href="#path-4"></use>
                </g>
            </g>
        </g>
    </g>
</svg>