<?xml version="1.0" encoding="UTF-8"?>
<svg width="347px" height="203px" viewBox="0 0 347 203" version="1.1" xmlns="http://www.w3.org/2000/svg" xmlns:xlink="http://www.w3.org/1999/xlink">
    <!-- Generator: Sketch 50.2 (55047) - http://www.bohemiancoding.com/sketch -->
    <title>Group</title>
    <desc>Created with Sketch.</desc>
    <defs></defs>
    <g id="Page-1" stroke="none" stroke-width="1" fill="none" fill-rule="evenodd">
        <g id="Desktop-Copy-2" transform="translate(-335.000000, -242.000000)">
            <g id="Group" transform="translate(335.000000, 242.000000)">
                <path d="M39.013889,0.5 L90.013889,0.5 L127.763889,203 L86.513889,203 L79.763889,160.25 L50.013889,160.25 L43.013889,203 L0.763888955,203 L39.013889,0.5 Z M75.513889,133.5 L64.763889,54.5 L54.013889,133.5 L75.513889,133.5 Z M146.930556,0.5 L191.680556,0.5 L191.680556,172.75 L238.180556,172.75 L238.180556,203 L146.930556,203 L146.930556,0.5 Z M270.347222,33.75 L239.347222,33.75 L239.347222,0.5 L346.097222,0.5 L346.097222,33.75 L315.347222,33.75 L315.347222,203 L270.347222,203 L270.347222,33.75 Z" id="ALT" fill="#000000"></path>
                <path d="M184.5775,78.9 L195.3175,78.9 L195.3175,120.24 L206.4775,120.24 L206.4775,127.5 L184.5775,127.5 L184.5775,78.9 Z M219.4975,78.9 L231.7375,78.9 L240.7975,127.5 L230.8975,127.5 L229.2775,117.24 L222.1375,117.24 L220.4575,127.5 L210.3175,127.5 L219.4975,78.9 Z M228.2575,110.82 L225.6775,91.86 L223.0975,110.82 L228.2575,110.82 Z M247.2175,78.9 L259.8775,78.9 C264.717524,78.9 268.507486,79.7599914 271.2475,81.48 C273.987514,83.2000086 275.3575,86.459976 275.3575,91.26 C275.3575,97.1400294 272.977524,100.519996 268.2175,101.4 C271.097514,101.760002 273.257493,102.95999 274.6975,105 C276.137507,107.04001 276.8575,109.839982 276.8575,113.4 C276.8575,122.800047 271.957549,127.5 262.1575,127.5 L247.2175,127.5 L247.2175,78.9 Z M260.0575,98.34 C262.337511,98.34 263.887496,97.8200052 264.7075,96.78 C265.527504,95.7399948 265.9375,94.120011 265.9375,91.92 C265.9375,89.9999904 265.417505,88.5500049 264.3775,87.57 C263.337495,86.5899951 261.81751,86.1 259.8175,86.1 L257.9575,86.1 L257.9575,98.34 L260.0575,98.34 Z M260.2375,120 C262.517511,120 264.127495,119.430006 265.0675,118.29 C266.007505,117.149994 266.4775,115.360012 266.4775,112.92 C266.4775,110.159986 266.007505,108.220006 265.0675,107.1 C264.127495,105.979994 262.497512,105.42 260.1775,105.42 L257.9575,105.42 L257.9575,120 L260.2375,120 Z" id="LAB-Copy" fill="#FFB300" transform="translate(230.717500, 103.200000) rotate(-90.000000) translate(-230.717500, -103.200000) "></path>
            </g>
        </g>
    </g>
</svg>