<svg height="64" viewBox="0 0 148 64" width="148" xmlns="http://www.w3.org/2000/svg" xmlns:xlink="http://www.w3.org/1999/xlink"><defs><path id="a" d="m11.8512732.1083411h15.590265l11.5398529 61.4294035h-12.6097731l-2.0634174-12.9684296h-9.0943212l-2.1398403 12.9684296h-12.91546457zm11.1577386 40.3462255-3.2861832-23.9650512-3.2861833 23.9650512zm22.2390544-40.3462255h13.6796933v52.2529124h14.2146533v9.1764911h-27.8943466z"/><path id="b" d="m82.5678997 10.1948975h-9.4764356v-10.0865564h32.6325639v10.0865564h-9.4000122v51.3428471h-13.7561161z"/><path id="c" d="m.38960326.5549757h7.2456087v29.7713742h7.52895654v5.2283546h-14.77456524zm22.54639134 0h8.2575652l6.1122174 34.9997288h-6.6789131l-1.092913-7.3888317h-4.8169131l-1.1333913 7.3888317h-6.840826zm5.9098261 22.9874762-1.7405653-13.6542152-1.7405652 13.6542152z"/><path id="d" d="m42.6489076.5549757h8.5409131c3.2652627 0 5.8221139.61933057 7.6706304 1.85801029s2.7727609 3.58637468 2.7727609 7.0431553c0 4.23455621-1.6056217 6.66866941-4.8169131 7.30241251 1.9429662.2592586 3.4001691 1.1234408 4.3716522 2.5925725.9714831 1.4691318 1.4572174 3.4855569 1.4572174 6.0493359 0 6.7695287-3.3056916 10.1542423-9.9171739 10.1542423h-10.079087zm8.6623478 13.9998915c1.5381816 0 2.5838596-.3744789 3.1370653-1.1234481.5532056-.7489691.8298043-1.9156151.8298043-3.49997285 0-1.38271225-.3508081-2.4269324-1.0524348-3.13269178-.7016267-.70575937-1.7270657-1.05863377-3.0763478-1.05863377h-1.2548261v8.8147465zm.1214348 15.5986446c1.5381816 0 2.6243374-.4104866 3.2585-1.231472s.9512391-2.1100571.9512391-3.867254c0-1.9876488-.3170765-3.3847434-.9512391-4.1913255s-1.733811-1.2098672-3.2989782-1.2098672h-1.4976957v10.4999187z"/></defs><g fill-rule="evenodd"><g transform="translate(0 2)"><use xlink:href="#a"/><use xlink:href="#a"/></g><g transform="translate(0 2)"><use xlink:href="#b"/><use xlink:href="#b"/></g><g transform="matrix(0 -1 1 0 111.5 63.5)"><use xlink:href="#c"/><use xlink:href="#c"/><use xlink:href="#d"/><use xlink:href="#d"/></g></g></svg>