<svg height="110" viewBox="0 0 113 110" width="113" xmlns="http://www.w3.org/2000/svg" xmlns:xlink="http://www.w3.org/1999/xlink"><defs><path id="a" d="m12.6339045 1.61328179h16.6198107l12.3019187 64.89835901h-13.4424939l-2.1996809-13.7007647h-9.6948896l-2.2811505 13.7007647h-13.76837257zm11.8945704 42.62460121-3.5031954-25.3183721-3.5031954 25.3183721zm15.6946755-41.53712745 14.3388744-2.65755328 10.060069 54.27927543 14.8996125-2.76148 1.7667175 9.5323546-29.2384868 5.4190332z"/><path id="b" d="m88.0204968 12.2694321h-10.1022379v-10.65615031h34.7875451v10.65615031h-10.020768v54.2422087h-14.6645392z"/><path id="c" d="m.13222327 110.547042v-7.908557h32.56528583v-8.2178306h5.7190124v16.1263876zm0-24.6093091v-9.0131041l38.28429823-6.6714642v7.2900106l-8.0822407 1.1929108v5.2576441l8.0822407 1.2370927v7.4667382zm25.14474893-6.4505549v3.799642l-14.9356027-1.899821z"/><path id="d" d="m0 0h16.4939044c6.305758 0 11.2434573 1.21970261 14.8132459 3.65914443 3.5697887 2.43944181 5.3546562 7.06296567 5.3546562 13.87071027 0 8.3394871-3.1007188 13.133202-9.3022494 14.3812886 3.7521866.5105808 6.5662843 2.2124914 8.4423776 5.1057829 1.8760933 2.8932914 2.8141259 6.8644162 2.8141259 11.9134935 0 13.3318331-6.3838328 19.9976497-19.15169 19.9976497h-19.4643706zm16.7284149 27.5712278c2.9704811 0 4.9898568-.7374946 6.0581877-2.212506 1.0683309-1.4750113 1.6024883-3.7725906 1.6024883-6.8928069 0-2.7230978-.677468-4.7795732-2.0324242-6.1694877-1.3549563-1.3899145-3.3352473-2.0848614-5.9409324-2.0848614h-2.4232751v17.359662zm.2345105 30.7197939c2.9704811 0 5.0680261-.8084076 6.2926981-2.4252469 1.2246721-1.6168394 1.8369989-4.1555227 1.8369989-7.6161262 0-3.9144531-.6123268-6.6658753-1.8369989-8.2543491-1.224672-1.5884737-3.3482735-2.3826987-6.3708683-2.3826987h-2.892296v20.6784209z"/></defs><g fill-rule="evenodd"><use xlink:href="#a"/><use xlink:href="#a"/><use xlink:href="#b"/><use xlink:href="#b"/><g transform="matrix(0 1 -1 0 111 71)"><use xlink:href="#c"/><use xlink:href="#c"/><use xlink:href="#d"/><use xlink:href="#d"/></g></g></svg>