<svg height="198" viewBox="0 0 219 198" width="219" xmlns="http://www.w3.org/2000/svg"><g fill="none" fill-rule="evenodd" transform="translate(-2 -5)"><g fill="#000" transform="translate(43 6)"><path d="m49.3825456 0h24.106814l17.8437692 95.4468938h-19.4981584l-3.1906078-20.1498998h-17.2135257l-4.8843871 20.1498998h-21.5464498zm19.6174544 102h24l17.816043 95h-19.4981588l-3.1906077-20.1499h-17.2135257l-4.8843871 20.1499h-21.5464498zm-1.7495396-39.6256513-5.0813382-37.2360721-8.2325558 37.2360721zm19.9073052 99.9819643-5.0813383-37.236073-8.2325558 37.236073zm7.8307754-162.356313h21.152548v81.1887776h21.979742v14.2581162h-43.13229zm47.20575 15.6721443h-14.653162v-15.6721443h50.458871v15.6721443h-14.534991v79.7747495h-21.270718z"/><path d="m23.6347359 102h21.1530886l-20.4834378 80.808642h18.8290063l-3.1512981 14.191358h-39.9820949zm91.9874661 0h24.934647c9.532724 0 16.997287 1.681053 22.393912 5.04321s8.094897 9.734521 8.094897 19.117284c0 11.493884-4.687509 18.100814-14.062668 19.820987 5.672365.703708 9.926575 3.049363 12.762758 7.037038 2.836182 3.987674 4.254252 9.46087 4.254252 16.419753 0 18.374577-9.650754 27.561728-28.952551 27.561728h-29.425247zm23.713519 38c4.490622 0 7.543411-1.016451 9.15846-3.049383 1.615048-2.032932 2.42256-5.199567 2.42256-9.5 0-3.753105-1.024161-6.587439-3.072515-8.503086-2.048354-1.915648-5.042058-2.873457-8.9812-2.873457h-3.663384v23.925926zm.354521 42.339506c4.490622 0 7.661584-1.114186 9.512981-3.342592 1.851397-2.228407 2.777081-5.727343 2.777081-10.496914 0-5.395089-.925684-9.187232-2.777081-11.376543-1.851397-2.189312-5.06175-3.283951-9.631155-3.283951h-4.372426v28.5z"/></g><path d="m27.35844 5.72303648 23-6.03151248 2.1906707 203.416775-23 6.031513z" fill="#ffb300" fill-rule="nonzero" transform="matrix(.96592583 .25881905 -.25881905 .96592583 28.386155 -6.78292)"/></g></svg>