<svg height="163" viewBox="0 0 86 163" width="86" xmlns="http://www.w3.org/2000/svg"><g fill="none" fill-rule="evenodd"><g transform="translate(2 68)"><g stroke="#000" stroke-linecap="round" stroke-linejoin="round"><g stroke-width="4"><path d="m5 19v45.5h71.5v-45.5z"/><path d="m41 .5c-4.3333333 0-6.5 2.33333333-6.5 7h-34.5v11.5h82v-11.5h-35c.3333333-4.66666667-1.6666667-7-6-7z"/><path d="m41 93v-28"/><path d="m23 93 18-17 17.5 17"/></g><path d="m15.5 30.5 14 11" stroke-width="3"/><path d="m27.5 29-10.5 13.5" stroke-width="3"/></g><path d="m63.3145939 38.5203916-.134207 18.3570692 2.2882424-1.2652042-15.6182483-9.6472959c-.7048094-.4353565-1.6290964-.2169217-2.0644529.4878877-.4353564.7048094-.2169216 1.6290964.4878878 2.0644529l15.6182484 9.6472959c.9951533.6147001 2.2796911-.0955405 2.2882424-1.2652042l.134207-18.3570692c.0060564-.828405-.6605888-1.5048696-1.4889938-1.510926s-1.5048696.6605888-1.510926 1.4889938zm-37.0122097 6.2565869c10.8707574-13.0689065 20.8147995-11.9573975 29.4727269-.9345084l-.1330756-.200725 7.2417304 13.0973598c.4008562.7249868 1.3135323.9877464 2.038519.5868902.7249868-.4008563.9877465-1.3135323.5868902-2.0385191l-7.2417304-13.0973598c-.0389069-.0703669-.0834088-.1374916-.1330756-.2007251-9.7588132-12.424488-21.9474688-13.7868918-34.1383835.8691178-.5297707.6368944-.4429299 1.5826633.1939645 2.1124341.6368944.5297707 1.5826634.4429299 2.1124341-.1939645z" fill="#000" fill-rule="nonzero" transform="matrix(1 0 0 -1 0 90.658668)"/></g><g fill-rule="nonzero" transform="translate(36 2)"><circle cx="24" cy="24" fill="#000" r="24" stroke="#000" stroke-width="4"/><path d="m20.8554688 22.2519531h2.6015624c1.3125066-.0117188 2.3525353-.3515591 3.1201172-1.0195312.767582-.6679721 1.1513672-1.6347593 1.1513672-2.9003907 0-1.218756-.3193327-2.1650356-.9580078-2.8388671s-1.6142512-1.0107422-2.9267578-1.0107422c-1.1484432 0-2.0917932.3310514-2.8300781.993164-.738285.6621127-1.1074219 1.5263619-1.1074219 2.5927735h-4.2714844c0-1.3125066.3486294-2.5078071 1.0458985-3.5859375s1.6699156-1.9189423 2.9179687-2.522461c1.2480531-.6035186 2.6455001-.9052734 4.1923828-.9052734 2.5547003 0 4.5615162.6415951 6.0205078 1.9248047 1.4589917 1.2832095 2.1884766 3.0673714 2.1884766 5.352539 0 1.1484433-.3662073 2.2294872-1.0986328 3.2431641-.7324255 1.013677-1.6787051 1.7783177-2.8388672 2.2939453 1.406257.4804712 2.4755823 1.236323 3.2080078 2.2675782.7324255 1.0312551 1.0986328 2.2617116 1.0986328 3.6914062 0 2.2968865-.788078 4.1249932-2.3642578 5.484375-1.5761797 1.3593818-3.6474481 2.0390625-6.2138672 2.0390625-2.4609498 0-4.4765546-.6562434-6.046875-1.96875-1.5703203-1.3125066-2.3554687-3.0585829-2.3554687-5.2382813h4.2714843c0 1.1250057.377926 2.039059 1.1337891 2.7421876.7558632.7031285 1.7724546 1.0546874 3.0498047 1.0546874 1.3242254 0 2.3671837-.3515589 3.1289062-1.0546874.7617226-.7031286 1.1425782-1.7226496 1.1425782-3.0585938 0-1.347663-.3984335-2.384762-1.1953125-3.1113281-.796879-.7265662-1.9804609-1.0898438-3.5507813-1.0898438h-2.5136718z" fill="#fff"/></g></g></svg>