<svg height="161" viewBox="0 0 95 161" width="95" xmlns="http://www.w3.org/2000/svg"><g fill="none" fill-rule="evenodd"><g stroke="#000" transform="translate(2 68)"><path d="m34.5434714 61c0-9.0754531-2.8661193-14.5462887-5.1085538-16.1087093s-3.1564744-4.486575-3.1564744-6.0921367c0-1.6055616-1.4189255-18.6969379-1.2670692-20.0905549.1518563-1.3940764 2.8086446-2.0394396 4.4502714.2967293 1.6416267 2.3366281 3.292284 11.8055614 4.4532647 11.7476854 1.0044805-.0500674 1.3576425-17.1071524 1.3051661-24.39631144-.0107848-1.48737142 1.5563712-2.784435 3.1375753-2.8192757 1.414583-.03116932 2.8404092 1.06210073 3.1577099 2.08388319.495971 1.59710165.2176098 19.16955855.3341723 18.55175535.0747672-.3987012.1532495-21.39773949.2317318-21.78266074.2040685-1.00240987 1.85096-2.29000438 3.5094228-2.38529367 1.4702747-.08447668 2.9496436.89058452 3.4408793 2.01323375.0738384.16949397.0843124 22.33845396.3908113 21.46388346.0673369-.1910826.1416397-18.12618007.2247659-18.33517669.4371504-1.1019813 1.8716416-2.08361659 3.2900583-2.01977019 1.4189026.06386828 2.8217197 1.17354273 3.1939939 1.96556887.459284.97608312.0686532 20.15582881.606737 21.13226151s-.2159257-14.9908213.1114709-15.5360499c.4229707-.7045614 1.6216019-1.62616606 2.8001032-1.5114595.9026747.08785964 1.7935396 1.0201598 2.3149907 1.7017766.4563707.5965469.7964723 14.0252879.9071286 15.1470961.2112786 2.1433276.3329056 11.680606-1.0688989 19.867982-.5578258 3.2580356-2.2079743 5.4869886-3.0825513 5.4869886-.5830513 0-.7758487 3.2061849-.5783922 9.6185546" stroke-width="3" transform=""/><g stroke-width="2.5"><path d="m6.78088756 92c0-6.5462285-2.03645319-10.492405-3.6297619-11.6193969s-2.24275816-3.236218-2.24275816-4.3943281c0-1.15811-1.00818388-13.4863158-.90028599-14.4915478.10789788-1.0055633 1.99561591-1.4710711 3.16203493.2140342 1.16641902 1.6854367 2.33925441 8.5154869 3.16416179 8.4737403.71370985-.0361141.96464071-12.3395853.92735489-17.5973393-.00766293-1.0728581 1.10584269-2.008445 2.22932982-2.033576 1.00509836-.0224827 2.01818546.7661055 2.24363596 1.5031289.3524004 1.1520078.1546175 13.8272226.2374382 13.381594.053124-.2875878.1088878-15.434435.1646515-15.7120831.1449961-.7230498 1.3151558-1.6518065 2.4935373-1.7205397 1.0446688-.060934 2.0957994.6423888 2.4448353 1.4521686.0524641.1222579.0599062 16.1129832.2776817 15.4821454.0478446-.13783.1006387-13.0746217.1597021-13.2253733.3106069-.7948718 1.3298506-1.5029366 2.337673-1.4568834 1.0081677.0460689 2.0049061.8464898 2.2694167 1.4177873.3263334.70406.0487799 14.5386307.4311026 15.2429428s-.1534208-10.8130515.079203-11.2063311c.3005318-.5082082 1.1521908-1.1729722 1.989547-1.0902331.6413742.0633742 1.2743571.735853 1.6448618 1.227511.3242635.4302962.5659146 10.1166011.6445388 10.9257742.150119 1.5460069.2365382 8.4253552-.7594808 14.3310034-.3963499 2.3500585-1.5688239 3.9578279-2.1902338 3.9578279-.4142733 0-.5512609 2.3126579-.4109629 6.9379738" transform=""/><path d="m70.7808876 92c0-6.5462285-2.0364532-10.492405-3.6297619-11.6193969s-2.2427582-3.236218-2.2427582-4.3943281c0-1.15811-1.0081839-13.4863158-.900286-14.4915478.1078979-1.0055633 1.9956159-1.4710711 3.1620349.2140342 1.1664191 1.6854367 2.3392545 8.5154869 3.1641618 8.4737403.7137099-.0361141.9646407-12.3395853.9273549-17.5973393-.0076629-1.0728581 1.1058427-2.008445 2.2293298-2.033576 1.0050984-.0224827 2.0181855.7661055 2.243636 1.5031289.3524004 1.1520078.1546175 13.8272226.2374382 13.381594.053124-.2875878.1088878-15.434435.1646515-15.7120831.1449961-.7230498 1.3151558-1.6518065 2.4935373-1.7205397 1.0446688-.060934 2.0957994.6423888 2.4448353 1.4521686.0524641.1222579.0599062 16.1129832.2776817 15.4821454.0478446-.13783.1006387-13.0746217.1597021-13.2253733.3106069-.7948718 1.3298506-1.5029366 2.337673-1.4568834 1.0081677.0460689 2.0049061.8464898 2.2694167 1.4177873.3263334.70406.0487799 14.5386307.4311026 15.2429428s-.1534208-10.8130515.079203-11.2063311c.3005318-.5082082 1.1521908-1.1729722 1.989547-1.0902331.6413742.0633742 1.2743571.735853 1.6448618 1.227511.3242635.4302962.5659146 10.1166011.6445388 10.9257742.150119 1.5460069.2365382 8.4253552-.7594808 14.3310034-.3963499 2.3500585-1.5688239 3.9578279-2.1902338 3.9578279-.4142733 0-.5512609 2.3126579-.4109629 6.9379738" transform="matrix(-1 0 0 1 155 0)"/></g></g><g transform="translate(45 2)"><circle cx="24" cy="24" fill="#000" fill-rule="nonzero" r="24" stroke="#000" stroke-width="4"/><path d="m29.3652344 26.8769531h3.1816406v3.4277344h-3.1816406v5.6953125h-4.2714844v-5.6953125h-11.0566406l-.1230469-2.6015625 11.0390625-17.296875h4.4121094zm-10.96875 0h6.6972656v-10.6875l-.3164062.5625z" fill="#fff"/></g></g></svg>