<svg height="162" viewBox="0 0 84 162" width="84" xmlns="http://www.w3.org/2000/svg"><g fill="none" fill-rule="evenodd" transform="translate(-23 2)"><path d="m37.8678176 123.842412c-.934578-3.203579-3.2573737-6.311613-5.4573254-10.64889-1.8779879-3.702182.5467763-33.6817421.8093253-36.117747.262549-2.4368078 4.8559517-3.5648852 7.6942105.5186748 2.8382588 4.0843628 2.6921307 21.635802 4.6993858 21.5346363 1.7366772-.0875163 1.3472697-26.9028396 1.2565418-39.6440925-.0192288-2.6810954 2.2702723-3.9449837 4.5482777-3.9301974 1.9072275.0123796 3.806397.9210636 4.3358337 2.6447512.8574994 2.7916905 1.9759419 17.2431248 3.623497 29.4400101.1469311 1.0887352 1.7527352 1.0678598 1.9542636-.0120435.1292673-.696919.2649577-1.4026699.4006482-2.0755018.6656058-3.3055479 7.2092576-4.8262444 9.0165902-.6503507.1276614.2962708.2521112 1.3817944.3701378 1.6523724.6511536 1.4805514 2.7756325 1.3946409 3.3055479-.1340846.1164208-.3340073.2448851-.6840726.3886046-1.049393 1.5118645-3.853127 6.9234245-2.8631488 8.2104765-.0947425.7940701 1.7061669.4945877 2.7780412 2.0490061 2.9386216 1.5094559.155763 1.6266796-1.2035502 2.1927255-2.1565949 1.7816397-3.0004451 7.7166918-2.3171754 8.412005 4.8093833.5106457 5.2373302 2.3236672 38.1071202-6.5477507 53.3198032-5.9142786 10.141788-12.6272525 19.101963-20.1389217 26.880525l-28.4903921-26.880525c-1.4611217-19.213247-1.6981093-17.141036-2.6326873-20.344615z" stroke="#000" stroke-width="4" transform="matrix(.69465837 .7193398 -.7193398 .69465837 101.033022 -11.396664)"/><g transform="translate(39)"><circle cx="24" cy="24" fill-rule="nonzero" r="24" stroke="#000" stroke-width="4"/><path d="m33.125 36h-17.2089844v-2.9355469l8.5253906-9.2988281c1.230475-1.3711006 2.1064428-2.516597 2.6279297-3.4365234.521487-.9199265.7822266-1.8427688.7822266-2.7685547 0-1.2187561-.34277-2.2031213-1.0283203-2.953125-.6855503-.7500038-1.6083926-1.125-2.7685547-1.125-1.3828194 0-2.4550743.4218708-3.2167969 1.265625-.7617225.8437542-1.1425781 1.9980395-1.1425781 3.4628906h-4.2714844c0-1.5586015.3544887-2.9619078 1.0634766-4.2099609.7089879-1.2480532 1.7226496-2.21777 3.0410156-2.9091797s2.8388586-1.0371094 4.5615235-1.0371094c2.4843874 0 4.4443287.6240172 5.8798828 1.8720703 1.435554 1.2480531 2.1533203 2.9736218 2.1533203 5.1767578 0 1.2773502-.360348 2.616204-1.0810547 4.0166016s-1.901359 2.991202-3.5419922 4.7724609l-6.2578125 6.6972657h11.8828125z" fill="#000"/></g></g></svg>