<svg height="100" viewBox="0 0 84 100" width="84" xmlns="http://www.w3.org/2000/svg"><path d="m614.867818 3325.84241c-.934578-3.20358-3.257374-6.31161-5.457326-10.64889-1.877988-3.70218.546777-33.68174.809326-36.11774.262548-2.43681 4.855951-3.56489 7.69421.51867 2.838259 4.08436 2.692131 21.6358 4.699386 21.53464 1.736677-.08752 1.34727-26.90284 1.256542-39.6441-.019229-2.68109 2.270272-3.94498 4.548277-3.93019 1.907228.01238 3.806397.92106 4.335834 2.64475.857499 2.79169 1.975942 17.24312 3.623497 29.44001.146931 1.08873 1.752735 1.06786 1.954264-.01205.129267-.69691.264957-1.40267.400648-2.0755.665606-3.30555 7.209257-4.82624 9.01659-.65035.127661.29627.252111 1.3818.370138 1.65237.651153 1.48056 2.775632 1.39464 3.305548-.13408.11642-.33401.244885-.68407.388604-1.04939 1.511865-3.85313 6.923425-2.86315 8.210477-.09475.79407 1.70617.494587 2.77804 2.049006 2.93863 1.509456.15576 1.626679-1.20355 2.192725-2.1566 1.78164-3.00044 7.716692-2.31717 8.412005 4.80938.510646 5.23733 2.323668 38.10712-6.54775 53.31981-5.914279 10.14179-12.627253 19.10196-20.138922 26.88052l-28.490392-26.88052c-1.461122-19.21325-1.698109-17.14104-2.632687-20.34462z" fill="none" stroke="#000" stroke-width="4" transform="matrix(.69465837 .7193398 -.7193398 .69465837 1980.541183 -2710.751831)"/></svg>