<svg height="24" viewBox="0 0 24 24" width="24" xmlns="http://www.w3.org/2000/svg"><path d="m8.465 11.293c1.133-1.133 3.109-1.133 4.242 0l.707.707 1.414-1.414-.707-.707c-.943-.944-2.199-1.465-3.535-1.465s-2.592.521-3.535 1.465l-2.122 2.121a5.008 5.008 0 0 0 0 7.071 4.983 4.983 0 0 0 3.535 1.462 4.982 4.982 0 0 0 3.536-1.462l.707-.707-1.414-1.414-.707.707a3.007 3.007 0 0 1 -4.243 0 3.005 3.005 0 0 1 0-4.243z"/><path d="m16.949 14.121 2.122-2.121a5.008 5.008 0 0 0 0-7.071 5.006 5.006 0 0 0 -7.071 0l-.707.707 1.414 1.414.707-.707a3.007 3.007 0 0 1 4.243 0 3.005 3.005 0 0 1 0 4.243l-2.122 2.121c-1.133 1.133-3.109 1.133-4.242 0l-.707-.707-1.414 1.414.707.707c.943.944 2.199 1.465 3.535 1.465s2.592-.521 3.535-1.465z"/></svg>