<svg height="24" viewBox="0 0 24 24" width="24" xmlns="http://www.w3.org/2000/svg"><path d="m6.855 14.365-1.817 6.36a1.001 1.001 0 0 0 1.517 1.106l5.445-3.629 5.445 3.63a1 1 0 0 0 1.517-1.106l-1.817-6.36 4.48-3.584a1.001 1.001 0 0 0 -.461-1.767l-5.497-.916-2.772-5.545c-.34-.678-1.449-.678-1.789 0l-2.773 5.544-5.497.916a1 1 0 0 0 -.461 1.767zm2.309-4.379c.315-.053.587-.253.73-.539l2.106-4.211 2.105 4.211c.144.286.415.486.73.539l3.79.632-3.251 2.601a1.003 1.003 0 0 0 -.337 1.056l1.253 4.385-3.736-2.491a1 1 0 0 0 -1.109-.001l-3.736 2.491 1.253-4.385a1.002 1.002 0 0 0 -.337-1.056l-3.251-2.601z"/></svg>