<?xml version="1.0" encoding="UTF-8"?>
<svg width="86px" height="97px" viewBox="0 0 86 97" version="1.1" xmlns="http://www.w3.org/2000/svg" xmlns:xlink="http://www.w3.org/1999/xlink">
    <!-- Generator: Sketch 51.1 (57501) - http://www.bohemiancoding.com/sketch -->
    <title>mapper1</title>
    <desc>Created with Sketch.</desc>
    <defs></defs>
    <g id="Page-1" stroke="none" stroke-width="1" fill="none" fill-rule="evenodd">
        <g id="mapper1" transform="translate(2.000000, 2.000000)">
            <g id="Group-5" stroke-linecap="round" stroke-linejoin="round" stroke="#000000" stroke-width="4">
                <polygon id="Path-7" points="5 19 5 64.5 76.5 64.5 76.5 19"></polygon>
                <path d="M41,0.5 C36.6666667,0.5 34.5,2.83333333 34.5,7.5 L0,7.5 L0,19 L82,19 L82,7.5 L47,7.5 C47.3333333,2.83333333 45.3333333,0.5 41,0.5 Z" id="Path-9"></path>
                <path d="M41,93 L41,65" id="Path-10"></path>
                <polyline id="Path-11" points="23 93 41 76 58.5 93"></polyline>
            </g>
            <path d="M15.5,30.5 L29.5,41.5" id="Line-4" stroke="#000000" stroke-width="3" stroke-linecap="round" stroke-linejoin="round"></path>
            <path d="M27.5,29 L17,42.5" id="Path-12" stroke="#000000" stroke-width="3" stroke-linecap="round" stroke-linejoin="round"></path>
            <path d="M63.3145939,38.5203916 L63.1803869,56.8774608 L65.4686293,55.6122566 L49.850381,45.9649607 C49.1455716,45.5296042 48.2212846,45.748039 47.7859281,46.4528484 C47.3505717,47.1576578 47.5690065,48.0819448 48.2738159,48.5173013 L63.8920643,58.1645972 C64.8872176,58.7792973 66.1717554,58.0690567 66.1803067,56.899393 L66.3145137,38.5423238 C66.3205701,37.7139188 65.6539249,37.0374542 64.8255199,37.0313978 C63.9971149,37.0253414 63.3206503,37.6919866 63.3145939,38.5203916 Z M26.3023842,44.7769785 C37.1731416,31.708072 47.1171837,32.819581 55.7751111,43.8424701 L55.6420355,43.6417451 L62.8837659,56.7391049 C63.2846221,57.4640917 64.1972982,57.7268513 64.9222849,57.3259951 C65.6472717,56.9251388 65.9100314,56.0124628 65.5091751,55.287476 L58.2674447,42.1901162 C58.2285378,42.1197493 58.1840359,42.0526246 58.1343691,41.9893911 C48.3755559,29.5649031 36.1869003,28.2024993 23.9959856,42.8585089 C23.4662149,43.4954033 23.5530557,44.4411722 24.1899501,44.970943 C24.8268445,45.5007137 25.7726135,45.4138729 26.3023842,44.7769785 Z" id="Path-13" fill="#000000" fill-rule="nonzero" transform="translate(44.981851, 45.329334) scale(1, -1) translate(-44.981851, -45.329334) "></path>
        </g>
    </g>
</svg>