<svg height="97" viewBox="0 0 86 97" width="86" xmlns="http://www.w3.org/2000/svg"><g fill="none" fill-rule="evenodd" transform="translate(2 2)"><g stroke="#000" stroke-linecap="round" stroke-linejoin="round"><g stroke-width="4"><path d="m5 19v45.5h71.5v-45.5z"/><path d="m41 .5c-4.3333333 0-6.5 2.33333333-6.5 7h-34.5v11.5h82v-11.5h-35c.3333333-4.66666667-1.6666667-7-6-7z"/><path d="m41 93v-28"/><path d="m23 93 18-17 17.5 17"/></g><path d="m15.5 30.5 14 11" stroke-width="3"/><path d="m27.5 29-10.5 13.5" stroke-width="3"/></g><path d="m63.3145939 38.5203916-.134207 18.3570692 2.2882424-1.2652042-15.6182483-9.6472959c-.7048094-.4353565-1.6290964-.2169217-2.0644529.4878877-.4353564.7048094-.2169216 1.6290964.4878878 2.0644529l15.6182484 9.6472959c.9951533.6147001 2.2796911-.0955405 2.2882424-1.2652042l.134207-18.3570692c.0060564-.828405-.6605888-1.5048696-1.4889938-1.510926s-1.5048696.6605888-1.510926 1.4889938zm-37.0122097 6.2565869c10.8707574-13.0689065 20.8147995-11.9573975 29.4727269-.9345084l-.1330756-.200725 7.2417304 13.0973598c.4008562.7249868 1.3135323.9877464 2.038519.5868902.7249868-.4008563.9877465-1.3135323.5868902-2.0385191l-7.2417304-13.0973598c-.0389069-.0703669-.0834088-.1374916-.1330756-.2007251-9.7588132-12.424488-21.9474688-13.7868918-34.1383835.8691178-.5297707.6368944-.4429299 1.5826633.1939645 2.1124341.6368944.5297707 1.5826634.4429299 2.1124341-.1939645z" fill="#000" fill-rule="nonzero" transform="matrix(1 0 0 -1 0 90.658668)"/></g></svg>